<svg width="272" height="168" viewBox="0 0 272 168" fill="none" xmlns="http://www.w3.org/2000/svg">
<g clip-path="url(#clip0_352_33)">
<path d="M46.1538 46.143C41.7848 50.516 40.5378 56.774 42.2848 62.284C46.7948 60.761 51.0478 58.231 54.6428 54.632C58.2428 51.036 60.7708 46.784 62.2948 42.275C56.7848 40.529 50.5278 41.773 46.1538 46.143Z" fill="black"/>
<path d="M17.8569 17.8461C22.2259 13.4721 23.4689 7.21513 21.7259 1.70312C17.2159 3.22713 12.9629 5.75612 9.36394 9.35612C5.76794 12.9521 3.23894 17.2041 1.71094 21.7151C7.22694 23.4571 13.4839 22.2151 17.8569 17.8461Z" fill="black"/>
<path d="M29.6609 0.0846897C31.8919 8.15569 29.8559 17.1607 23.5159 23.5067C17.1729 29.8427 8.1679 31.8797 0.0969019 29.6477C-0.466098 37.3507 1.7459 45.2007 6.7289 51.6047L51.6179 6.72169C45.2129 1.73369 37.3599 -0.47831 29.6609 0.0846897Z" fill="black"/>
<path d="M57.277 12.3809L12.394 57.2659C18.799 62.2519 26.652 64.4649 34.351 63.9029C32.12 55.8329 34.152 46.8269 40.496 40.4829C46.839 34.1429 55.845 32.1079 63.915 34.3419C64.478 26.6389 62.265 18.7869 57.277 12.3809Z" fill="black"/>
</g>
<g clip-path="url(#clip1_352_33)">
<path d="M156 0H116C109.375 0 104 5.371 104 12V52C104 54.211 105.789 56 108 56H112V60C112 62.211 113.789 64 116 64H120C122.211 64 124 62.211 124 60V56H148V60C148 62.211 149.789 64 152 64H156C158.211 64 160 62.211 160 60V56H164C166.211 56 168 54.211 168 52V12C168 5.375 162.629 0 156 0ZM120 44C117.789 44 116 42.211 116 40C116 37.789 117.789 36 120 36C122.211 36 124 37.789 124 40C124 42.211 122.211 44 120 44ZM152 44C149.789 44 148 42.211 148 40C148 37.789 149.789 36 152 36C154.211 36 156 37.789 156 40C156 42.211 154.211 44 152 44ZM160 24H112V12C112 9.789 113.789 8 116 8H156C158.211 8 160 9.789 160 12V24Z" fill="black"/>
</g>
<path d="M268 10H257.656L250.828 3.172C250.078 2.422 249.062 2 248 2H232C230.938 2 229.922 2.422 229.172 3.172L222.344 10H212C209.789 10 208 11.789 208 14V58C208 60.211 209.789 62 212 62H268C270.211 62 272 60.211 272 58V14C272 11.789 270.211 10 268 10ZM240 50C231.164 50 224 42.836 224 34C224 25.164 231.164 18 240 18C248.836 18 256 25.164 256 34C256 42.836 248.836 50 240 50Z" fill="black"/>
<path d="M240 42C244.418 42 248 38.4183 248 34C248 29.5817 244.418 26 240 26C235.582 26 232 29.5817 232 34C232 38.4183 235.582 42 240 42Z" fill="black"/>
<g clip-path="url(#clip2_352_33)">
<path d="M32 104C14.328 104 0 118.328 0 136C0 153.672 14.328 168 32 168C49.672 168 64 153.672 64 136C64 118.328 49.672 104 32 104ZM42.844 146.844C41.278 148.41 38.676 148.332 37.11 146.766L29.176 138.832C28.805 138.465 28.512 138.02 28.309 137.527C28.105 137.039 28 136.523 28 136V120C28 117.789 29.789 116 32 116C34.211 116 36 117.789 36 120V134.344L42.859 141.203C44.426 142.77 44.406 145.281 42.844 146.844Z" fill="#231F20"/>
</g>
<path d="M164 156H108C105.789 156 104 157.789 104 160C104 162.211 105.789 164 108 164H164C166.211 164 168 162.211 168 160C168 157.789 166.211 156 164 156Z" fill="#231F20"/>
<path d="M164 112C164 109.789 162.211 108 160 108H112C109.789 108 108 109.789 108 112V152H164V112Z" fill="#231F20"/>
<path d="M270.799 127.737C270.329 126.338 269.118 125.318 267.66 125.095L250.691 122.502L243.069 106.265C242.419 104.881 241.03 104 239.504 104C237.977 104 236.589 104.881 235.939 106.265L228.316 122.503L211.347 125.096C209.889 125.319 208.678 126.338 208.209 127.738C207.74 129.138 208.094 130.68 209.125 131.738L221.517 144.445L218.582 162.422C218.34 163.91 218.971 165.406 220.202 166.276C221.432 167.146 223.056 167.234 224.379 166.504L239.505 158.139L254.631 166.504C255.228 166.834 255.885 166.996 256.539 166.996C257.335 166.996 258.131 166.754 258.808 166.276C260.039 165.407 260.669 163.911 260.427 162.422L257.492 144.445L269.885 131.738C270.914 130.68 271.268 129.138 270.799 127.737Z" fill="#231F20"/>
<defs>
<clipPath id="clip0_352_33">
<rect width="64" height="64" fill="white"/>
</clipPath>
<clipPath id="clip1_352_33">
<rect width="64" height="64" fill="white" transform="translate(104)"/>
</clipPath>
<clipPath id="clip2_352_33">
<rect width="64" height="64" fill="white" transform="translate(0 104)"/>
</clipPath>
</defs>
</svg>
